<svg width="71" height="24" viewBox="0 0 71 24" fill="none" xmlns="http://www.w3.org/2000/svg">
<path d="M35.1175 17.2896C35.7709 17.2896 36.3384 17.2174 36.8199 17.0732C37.3015 16.929 37.7003 16.7223 38.0163 16.4532C38.3324 16.1841 38.5679 15.8601 38.7227 15.4812C38.8776 15.1022 38.955 14.6781 38.955 14.2088C38.955 13.6491 38.8426 13.1496 38.6177 12.7104C38.3929 12.2712 38.0513 11.9138 37.5931 11.6383C37.9919 11.156 38.1913 10.5941 38.1913 9.95256C38.1913 9.56073 38.1139 9.19582 37.9591 8.85782C37.8042 8.51982 37.5677 8.2281 37.2495 7.98267C36.9313 7.73725 36.5314 7.54456 36.0499 7.40463C35.5683 7.26469 35.003 7.19472 34.3539 7.19472H29.0399V17.2896H35.1175ZM35.6394 11.0893C35.4739 11.0764 35.3042 11.0699 35.1303 11.0699H31.0573V8.99668H34.4048C34.9478 8.99668 35.3604 9.09679 35.6426 9.29701C35.9247 9.49722 36.0658 9.78033 36.0658 10.1463C36.0658 10.4994 35.9237 10.8137 35.6394 11.0893ZM35.1685 15.507H31.0573V12.7814H35.1685C35.7115 12.7814 36.1241 12.902 36.4063 13.1431C36.6884 13.3842 36.8295 13.7201 36.8295 14.1507C36.8295 14.5812 36.6884 14.9149 36.4063 15.1518C36.1241 15.3886 35.7115 15.507 35.1685 15.507ZM41.0383 8.62854C41.2293 8.62854 41.4 8.60163 41.5506 8.5478C41.7013 8.49398 41.8296 8.42078 41.9357 8.32821C42.0417 8.23564 42.1234 8.12799 42.1807 8.00528C42.2379 7.88256 42.2666 7.75232 42.2666 7.61453C42.2666 7.47244 42.2379 7.34004 42.1807 7.21732C42.1234 7.09461 42.0417 6.98804 41.9357 6.89762C41.8296 6.8072 41.7013 6.73508 41.5506 6.68126C41.4 6.62744 41.2293 6.60052 41.0383 6.60052C40.8517 6.60052 40.683 6.62744 40.5324 6.68126C40.3818 6.73508 40.2534 6.8072 40.1474 6.89762C40.0413 6.98804 39.9596 7.09461 39.9024 7.21732C39.8451 7.34004 39.8165 7.47244 39.8165 7.61453C39.8165 7.75232 39.8451 7.88256 39.9024 8.00528C39.9596 8.12799 40.0413 8.23564 40.1474 8.32821C40.2534 8.42078 40.3818 8.49398 40.5324 8.5478C40.683 8.60163 40.8517 8.62854 41.0383 8.62854ZM41.9802 17.2896V9.66838H40.0965V17.2896H41.9802ZM51.713 17.2896V15.4941H45.9282V7.19472H43.9108V17.2896H51.713ZM53.7072 8.62854C53.8982 8.62854 54.0689 8.60163 54.2195 8.5478C54.3702 8.49398 54.4985 8.42078 54.6046 8.32821C54.7106 8.23564 54.7923 8.12799 54.8496 8.00528C54.9069 7.88256 54.9355 7.75232 54.9355 7.61453C54.9355 7.47244 54.9069 7.34004 54.8496 7.21732C54.7923 7.09461 54.7106 6.98804 54.6046 6.89762C54.4985 6.8072 54.3702 6.73508 54.2195 6.68126C54.0689 6.62744 53.8982 6.60052 53.7072 6.60052C53.5206 6.60052 53.3519 6.62744 53.2013 6.68126C53.0507 6.73508 52.9223 6.8072 52.8163 6.89762C52.7102 6.98804 52.6285 7.09461 52.5713 7.21732C52.514 7.34004 52.4854 7.47244 52.4854 7.61453C52.4854 7.75232 52.514 7.88256 52.5713 8.00528C52.6285 8.12799 52.7102 8.23564 52.8163 8.32821C52.9223 8.42078 53.0507 8.49398 53.2013 8.5478C53.3519 8.60163 53.5206 8.62854 53.7072 8.62854ZM54.6491 17.2896V9.66838H52.7654V17.2896H54.6491ZM58.228 17.2896V12.7556C58.5716 12.2906 59.0182 11.93 59.5676 11.6738C60.117 11.4176 60.7545 11.2529 61.4799 11.1797L60.9263 9.42941C60.4681 9.54997 60.0078 9.72435 59.5453 9.95256C59.0829 10.1808 58.6437 10.452 58.228 10.7663V9.66838H56.3442V17.2896H58.228ZM65.3579 17.4252C65.7058 17.4252 66.0357 17.4026 66.3475 17.3574C66.6593 17.3122 66.951 17.2508 67.2225 17.1733C67.4941 17.0958 67.7455 17.0054 67.9767 16.9021C68.2079 16.7987 68.4211 16.6889 68.6163 16.5727V17.2896H70.5V13.9698C70.5 12.4671 70.1585 11.3519 69.4754 10.6243C68.7923 9.89658 67.7486 9.53275 66.3443 9.53275C66.0261 9.53275 65.6973 9.54997 65.3579 9.58442C65.0185 9.61886 64.6791 9.6673 64.3397 9.72973C64.0003 9.79217 63.6683 9.86644 63.3437 9.95256C63.0191 10.0387 62.7147 10.1334 62.4305 10.2367L63.0032 11.8062C63.2323 11.6985 63.4795 11.606 63.7446 11.5285C64.0098 11.451 64.2782 11.3864 64.5497 11.3347C64.8212 11.283 65.0843 11.2443 65.3388 11.2185C65.5934 11.1926 65.8267 11.1797 66.0389 11.1797C66.4292 11.1797 66.7781 11.2206 67.0857 11.3024C67.3933 11.3842 67.6564 11.4994 67.8749 11.648C68.0934 11.7965 68.2641 11.973 68.3872 12.1776C68.5102 12.3821 68.5823 12.6049 68.6035 12.846C68.0605 12.7039 67.5333 12.5984 67.0221 12.5296C66.5108 12.4607 66.024 12.4262 65.5616 12.4262C64.9379 12.4262 64.3916 12.4854 63.9228 12.6038C63.454 12.7222 63.0626 12.8902 62.7487 13.1076C62.4347 13.325 62.1992 13.5845 62.0423 13.8859C61.8853 14.1873 61.8068 14.521 61.8068 14.887C61.8068 15.2486 61.8821 15.5834 62.0327 15.8913C62.1833 16.1991 62.4071 16.4672 62.7041 16.6954C63.0011 16.9236 63.3713 17.1023 63.8146 17.2314C64.258 17.3606 64.7724 17.4252 65.3579 17.4252ZM65.5234 15.7782C65.2137 15.7782 64.9496 15.7513 64.7311 15.6975C64.5126 15.6437 64.3333 15.5726 64.1933 15.4844C64.0533 15.3961 63.9515 15.2949 63.8878 15.1808C63.8242 15.0667 63.7924 14.9472 63.7924 14.8224C63.7924 14.7061 63.8221 14.5942 63.8815 14.4865C63.9409 14.3789 64.0427 14.2852 64.1869 14.2056C64.3312 14.1259 64.52 14.0624 64.7533 14.015C64.9867 13.9677 65.2794 13.944 65.6316 13.944C65.8013 13.944 65.9996 13.9505 66.2266 13.9634C66.4536 13.9763 66.6954 13.9989 66.9521 14.0312C67.2088 14.0635 67.4782 14.1076 67.7603 14.1636C68.0424 14.2196 68.3278 14.2885 68.6163 14.3703V14.7061C68.472 14.8439 68.2917 14.9774 68.0753 15.1066C67.8589 15.2357 67.6171 15.3498 67.3498 15.4489C67.0825 15.5479 66.794 15.6275 66.4843 15.6878C66.1746 15.7481 65.8543 15.7782 65.5234 15.7782Z" fill="#25245C"/>
<path d="M0.5 11.5218C0.5 6.10971 0.5 3.40767 2.17383 1.7179C3.87157 0.044075 6.57361 0.044075 11.9777 0.044075H12.9342C18.3462 0.044075 21.0482 0.044075 22.738 1.7179C24.4118 3.41565 24.4118 6.11768 24.4118 11.5218V12.4782C24.4118 17.8903 24.4118 20.5923 22.738 22.2821C21.0403 23.9559 18.3382 23.9559 12.9342 23.9559H11.9777C6.56564 23.9559 3.8636 23.9559 2.17383 22.2821C0.5 20.5844 0.5 17.8823 0.5 12.4782V11.5218Z" fill="url(#paint0_linear_4001_8337)"/>
<path fill-rule="evenodd" clip-rule="evenodd" d="M8.45081 4.16885L10.2473 4.64928V17.9218C13.7086 17.4523 15.5236 15.3445 15.8781 11.397L15.8884 11.2768L12.0198 10.2193V8.37618L17.716 9.93319L17.7166 10.8389L17.716 10.8667C17.708 11.1736 17.6768 11.4706 17.6459 11.7572C17.1871 16.0192 15.1476 18.1154 12.7939 19.075C11.2905 19.6064 9.84282 19.8576 8.45081 19.8289V4.16885ZM12.0177 5.11777L16.2219 6.24095V8.10335L12.0177 6.91777V5.11777Z" fill="white"/>
<defs>
<linearGradient id="paint0_linear_4001_8337" x1="0.5" y1="0.044075" x2="24.4118" y2="23.9559" gradientUnits="userSpaceOnUse">
<stop stop-color="#BAE1EB"/>
<stop offset="0.548203" stop-color="#6061E6"/>
<stop offset="1" stop-color="#006BFF"/>
</linearGradient>
</defs>
</svg>
